<svg width="27" height="27" viewBox="0 0 27 27" fill="none" xmlns="http://www.w3.org/2000/svg">
<path d="M12.75 10.25V6.5H9V4H12.75V0.25H15.25V4H19V6.5H15.25V10.25H12.75ZM7.75 26.5C7.0625 26.5 6.47396 26.2552 5.98438 25.7656C5.49479 25.276 5.25 24.6875 5.25 24C5.25 23.3125 5.49479 22.724 5.98438 22.2344C6.47396 21.7448 7.0625 21.5 7.75 21.5C8.4375 21.5 9.02604 21.7448 9.51562 22.2344C10.0052 22.724 10.25 23.3125 10.25 24C10.25 24.6875 10.0052 25.276 9.51562 25.7656C9.02604 26.2552 8.4375 26.5 7.75 26.5ZM20.25 26.5C19.5625 26.5 18.974 26.2552 18.4844 25.7656C17.9948 25.276 17.75 24.6875 17.75 24C17.75 23.3125 17.9948 22.724 18.4844 22.2344C18.974 21.7448 19.5625 21.5 20.25 21.5C20.9375 21.5 21.526 21.7448 22.0156 22.2344C22.5052 22.724 22.75 23.3125 22.75 24C22.75 24.6875 22.5052 25.276 22.0156 25.7656C21.526 26.2552 20.9375 26.5 20.25 26.5ZM0.25 4V1.5H4.34375L9.65625 12.75H18.4062L23.2812 4H26.125L20.625 13.9375C20.3958 14.3542 20.0885 14.6771 19.7031 14.9062C19.3177 15.1354 18.8958 15.25 18.4375 15.25H9.125L7.75 17.75H22.75V20.25H7.75C6.8125 20.25 6.09896 19.8438 5.60938 19.0312C5.11979 18.2188 5.10417 17.3958 5.5625 16.5625L7.25 13.5L2.75 4H0.25Z" fill="#2E2E2E"/>
</svg>
