<svg width="50" height="58" viewBox="0 0 50 58" fill="none" xmlns="http://www.w3.org/2000/svg">
<path d="M12.4997 53.1666C11.3538 53.1666 10.3729 52.6933 9.55697 51.7468C8.74099 50.8003 8.33301 49.6624 8.33301 48.3333V19.3333C8.33301 18.0041 8.74099 16.8662 9.55697 15.9197C10.3729 14.9732 11.3538 14.4999 12.4997 14.4999H16.6663C16.6663 11.8416 17.4823 9.56589 19.1143 7.67284C20.7462 5.77978 22.708 4.83325 24.9997 4.83325C27.2913 4.83325 29.2531 5.77978 30.8851 7.67284C32.517 9.56589 33.333 11.8416 33.333 14.4999H37.4997C38.6455 14.4999 39.6264 14.9732 40.4424 15.9197C41.2584 16.8662 41.6663 18.0041 41.6663 19.3333V48.3333C41.6663 49.6624 41.2584 50.8003 40.4424 51.7468C39.6264 52.6933 38.6455 53.1666 37.4997 53.1666H12.4997ZM12.4997 48.3333H37.4997V19.3333H33.333V24.1666C33.333 24.8513 33.1334 25.4253 32.734 25.8885C32.3347 26.3517 31.84 26.5833 31.2497 26.5833C30.6594 26.5833 30.1646 26.3517 29.7653 25.8885C29.366 25.4253 29.1663 24.8513 29.1663 24.1666V19.3333H20.833V24.1666C20.833 24.8513 20.6334 25.4253 20.234 25.8885C19.8347 26.3517 19.34 26.5833 18.7497 26.5833C18.1594 26.5833 17.6646 26.3517 17.2653 25.8885C16.866 25.4253 16.6663 24.8513 16.6663 24.1666V19.3333H12.4997V48.3333ZM20.833 14.4999H29.1663C29.1663 13.1708 28.7584 12.0329 27.9424 11.0864C27.1264 10.1398 26.1455 9.66658 24.9997 9.66658C23.8538 9.66658 22.8729 10.1398 22.057 11.0864C21.241 12.0329 20.833 13.1708 20.833 14.4999Z" fill="#2E2E2E"/>
</svg>
