<svg width="36" height="38" viewBox="0 0 36 38" fill="none" xmlns="http://www.w3.org/2000/svg">
<g clip-path="url(#clip0_139_49)">
<path d="M36 19.116C36 8.62322 27.9405 0.115967 18 0.115967C8.0595 0.115967 0 8.62322 0 19.116C0 28.6001 6.582 36.4598 15.1875 37.8848V24.6086H10.617V19.1144H15.1875V14.9313C15.1875 10.1701 17.8755 7.53863 21.987 7.53863C23.955 7.53863 26.016 7.91072 26.016 7.91072V12.5863H23.745C21.5085 12.5863 20.811 14.0509 20.811 15.5535V19.116H25.803L25.005 24.6101H20.811V37.8864C29.418 36.4598 36 28.5986 36 19.116Z" fill="#2E2E2E"/>
</g>
<defs>
<clipPath id="clip0_139_49">
<rect width="36" height="38" fill="white"/>
</clipPath>
</defs>
</svg>
