<svg width="36" height="38" viewBox="0 0 36 38" fill="none" xmlns="http://www.w3.org/2000/svg">
<g clip-path="url(#clip0_139_51)">
<path d="M18 0C13.11 0 12.4995 0.02375 10.5795 0.114C8.6625 0.209 7.3575 0.52725 6.21 0.9975C5.0265 1.482 4.0215 2.13275 3.021 3.18883C2.0205 4.24492 1.4025 5.30417 0.945 6.555C0.4995 7.76625 0.1965 9.14375 0.108 11.1673C0.018 13.194 0 13.8383 0 19C0 24.1617 0.0225 24.806 0.108 26.8328C0.198 28.8547 0.4995 30.2337 0.945 31.445C1.404 32.6927 2.0205 33.755 3.021 34.8112C4.0215 35.8657 5.025 36.5195 6.21 37.0025C7.359 37.4712 8.664 37.7925 10.5795 37.886C12.4995 37.981 13.11 38 18 38C22.89 38 23.5005 37.9762 25.4205 37.886C27.336 37.791 28.6425 37.4712 29.79 37.0025C30.972 36.518 31.9785 35.8657 32.979 34.8112C33.978 33.755 34.5975 32.6975 35.055 31.445C35.499 30.2337 35.8035 28.8547 35.892 26.8328C35.982 24.806 36 24.1617 36 19C36 13.8383 35.9775 13.194 35.892 11.1673C35.802 9.14533 35.499 7.76467 35.055 6.555C34.596 5.30575 33.978 4.24492 32.979 3.18883C31.9785 2.13275 30.9765 1.48042 29.79 0.9975C28.6425 0.52725 27.336 0.207417 25.4205 0.114C23.5005 0.019 22.89 0 18 0ZM18 3.42C22.8045 3.42 23.3775 3.44533 25.275 3.53242C27.03 3.6195 27.9825 3.92667 28.6155 4.1895C29.4585 4.53308 30.0555 4.94475 30.6885 5.60817C31.317 6.27317 31.707 6.90492 32.0325 7.79475C32.2785 8.46292 32.5725 9.46833 32.652 11.3208C32.7375 13.3253 32.757 13.927 32.757 19C32.757 24.073 32.7345 24.6763 32.646 26.6792C32.5545 28.5317 32.262 29.537 32.0145 30.2053C31.6785 31.095 31.296 31.7253 30.666 32.3935C30.0375 33.0568 29.43 33.4685 28.596 33.812C27.966 34.0718 26.9985 34.382 25.2435 34.466C23.3325 34.5563 22.77 34.5768 17.955 34.5768C13.1385 34.5768 12.576 34.553 10.6665 34.4597C8.91 34.363 7.9425 34.0543 7.3125 33.793C6.459 33.4385 5.8725 33.0347 5.244 32.3697C4.6125 31.7062 4.209 31.065 3.894 30.1847C3.6465 29.5197 3.3555 28.4985 3.264 26.646C3.1965 24.651 3.1725 24.035 3.1725 18.9762C3.1725 13.916 3.1965 13.2985 3.264 11.2797C3.3555 9.42717 3.6465 8.4075 3.894 7.7425C4.209 6.84 4.6125 6.2225 5.244 5.55592C5.8725 4.8925 6.459 4.465 7.3125 4.13408C7.9425 3.87125 8.889 3.5625 10.644 3.4675C12.5565 3.39625 13.119 3.3725 17.9325 3.3725L18 3.42ZM18 9.2435C12.8925 9.2435 8.757 13.6135 8.757 19C8.757 24.3913 12.897 28.7565 18 28.7565C23.1075 28.7565 27.243 24.3865 27.243 19C27.243 13.6088 23.103 9.2435 18 9.2435ZM18 25.3333C14.685 25.3333 12 22.4992 12 19C12 15.5008 14.685 12.6667 18 12.6667C21.315 12.6667 24 15.5008 24 19C24 22.4992 21.315 25.3333 18 25.3333ZM29.769 8.85875C29.769 10.1175 28.8 11.1388 27.609 11.1388C26.4165 11.1388 25.449 10.1159 25.449 8.85875C25.449 7.60158 26.418 6.58033 27.609 6.58033C28.7985 6.57875 29.769 7.60158 29.769 8.85875Z" fill="#2E2E2E"/>
</g>
<defs>
<clipPath id="clip0_139_51">
<rect width="36" height="38" fill="white"/>
</clipPath>
</defs>
</svg>
