<svg width="36" height="38" viewBox="0 0 36 38" fill="none" xmlns="http://www.w3.org/2000/svg">
<path d="M35.247 9.79438C35.0436 8.98573 34.6426 8.24768 34.0839 7.65413C33.5253 7.06058 32.8287 6.63237 32.064 6.41238C29.2575 5.61279 18 5.61279 18 5.61279C18 5.61279 6.7425 5.61279 3.9345 6.41238C3.17011 6.63276 2.47394 7.06113 1.91562 7.65463C1.35729 8.24814 0.956387 8.98599 0.753 9.79438C0 12.7774 0 18.9999 0 18.9999C0 18.9999 0 25.2224 0.753 28.2054C0.956379 29.0141 1.35746 29.7521 1.91609 30.3456C2.47471 30.9391 3.17126 31.3673 3.936 31.5874C6.7425 32.3869 18 32.3869 18 32.3869C18 32.3869 29.2575 32.3869 32.0655 31.5874C32.8303 31.3676 33.5269 30.9394 34.0856 30.3459C34.6443 29.7522 35.0452 29.0141 35.2485 28.2054C36 25.2224 36 18.9999 36 18.9999C36 18.9999 36 12.7774 35.247 9.79438ZM14.3175 24.6492V13.3506L23.727 18.9999L14.3175 24.6492Z" fill="#2E2E2E"/>
</svg>
